<svg version="1.1" xmlns="http://www.w3.org/2000/svg" xmlns:xlink="http://www.w3.org/1999/xlink" x="0px" y="0px" style="enable-background:new 0 0 36 36;" xml:space="preserve" viewBox="0 5 36 26"> <style type="text/css"> 	.st0{fill:#3C3B6E;} 	.st1{fill:#FFFFFF;} 	.st2{fill:#B22334;} 	.st3{fill:#EEEEEE;} 	.st4{fill:#00247D;} 	.st5{fill:#CF1B2B;} </style> <g id="Layer_1"> 	<path class="st0" d="M18,5H4C1.8,5,0,6.8,0,9v10h18V5z"/> 	<path class="st1" d="M2,7.7l0.6,0.4L2.4,8.9L3,8.5l0.6,0.4L3.4,8.2L4,7.7H3.2L3,7L2.8,7.7H2z M4,9.7l0.6,0.4l-0.2,0.7L5,10.5 &#9;&#9;l0.6,0.4l-0.2-0.7L6,9.7H5.2L5,9L4.8,9.7H4z M8,9.7l0.6,0.4l-0.2,0.7L9,10.5l0.6,0.4l-0.2-0.7L10,9.7H9.2L9,9L8.8,9.7H8z M12,9.7 &#9;&#9;l0.6,0.4l-0.2,0.7l0.6-0.4l0.6,0.4l-0.2-0.7L14,9.7h-0.8L13,9l-0.2,0.7H12z M4,13.7l0.6,0.4l-0.2,0.7L5,14.5l0.6,0.4l-0.2-0.7 &#9;&#9;L6,13.7H5.2L5,13l-0.2,0.7H4z M8,13.7l0.6,0.4l-0.2,0.7L9,14.5l0.6,0.4l-0.2-0.7l0.6-0.4H9.2L9,13l-0.2,0.7H8z M12,13.7l0.6,0.4 &#9;&#9;l-0.2,0.7l0.6-0.4l0.6,0.4l-0.2-0.7l0.6-0.4h-0.8L13,13l-0.2,0.7H12z M6,7.7l0.6,0.4L6.4,8.9L7,8.5l0.6,0.4L7.4,8.2L8,7.7H7.2L7,7 &#9;&#9;L6.8,7.7H6z M10,7.7l0.6,0.4l-0.2,0.7L11,8.5l0.6,0.4l-0.2-0.7L12,7.7h-0.8L11,7l-0.2,0.7H10z M14,7.7l0.6,0.4l-0.2,0.7L15,8.5 &#9;&#9;l0.6,0.4l-0.2-0.7L16,7.7h-0.8L15,7l-0.2,0.7H14z M2,11.7l0.6,0.4l-0.2,0.7L3,12.5l0.6,0.4l-0.2-0.7L4,11.7H3.2L3,11l-0.2,0.7H2z &#9;&#9; M6.4,12.9L7,12.5l0.6,0.4l-0.2-0.7L8,11.7H7.2L7,11l-0.2,0.7H6l0.6,0.4L6.4,12.9z M10,11.7l0.6,0.4l-0.2,0.7l0.6-0.4l0.6,0.4 &#9;&#9;l-0.2-0.7l0.6-0.4h-0.8L11,11l-0.2,0.7H10z M14,11.7l0.6,0.4l-0.2,0.7l0.6-0.4l0.6,0.4l-0.2-0.7l0.6-0.4h-0.8L15,11l-0.2,0.7H14z &#9;&#9; M2,15.7l0.6,0.4l-0.2,0.7L3,16.5l0.6,0.4l-0.2-0.7L4,15.7H3.2L3,15l-0.2,0.7H2z M6.4,16.9L7,16.5l0.6,0.4l-0.2-0.7L8,15.7H7.2 &#9;&#9;L7,15l-0.2,0.7H6l0.6,0.4L6.4,16.9z M10,15.7l0.6,0.4l-0.2,0.7l0.6-0.4l0.6,0.4l-0.2-0.7l0.6-0.4h-0.8L11,15l-0.2,0.7H10z M14,15.7 &#9;&#9;l0.6,0.4l-0.2,0.7l0.6-0.4l0.6,0.4l-0.2-0.7l0.6-0.4h-0.8L15,15l-0.2,0.7H14z"/> 	<g> 		<rect y="21" class="st2" width="18" height="2"/> 		<path class="st2" d="M18,29H0.6c0.7,1.2,2,2,3.4,2h14V29z"/> 		<rect y="25" class="st2" width="18" height="2"/> 	</g> 	<g> 		<rect y="19" class="st3" width="18" height="2"/> 		<path class="st3" d="M18,27H0c0,0.2,0,0.5,0.1,0.7c0,0.1,0,0.2,0.1,0.3c0,0.1,0.1,0.2,0.1,0.3c0.1,0.3,0.2,0.5,0.3,0.7l0,0H18V27z &#9;&#9;&#9;"/> 		<rect y="23" class="st3" width="18" height="2"/> 	</g> </g> <g id="Layer_2"> 	<path class="st4" d="M23,25.2V31h8.3L23,25.2z M31.3,5H23v5.8L31.3,5z M36,26.9V23h-5.6L36,26.9z M36,13V9.1L30.4,13H36z"/> 	<path class="st5" d="M25.1,23l9.7,6.8c0.5-0.5,0.8-1.1,1-1.7L28.6,23H25.1z M23,13h2.1l9.7-6.8c-0.5-0.5-1.2-0.9-1.9-1.1L23,12.1 &#9;&#9;V13z"/> 	<path class="st3" d="M36,21H21v10h2v-5.8l8.3,5.8H32c1.1,0,2.1-0.5,2.9-1.2L25.1,23h3.5l7.2,5.1c0.1-0.3,0.2-0.7,0.2-1.1v-0.1 &#9;&#9;L30.4,23H36V21z M36,9c0-1.1-0.4-2.1-1.1-2.8L25.1,13H23v-0.9l9.9-6.9C32.6,5,32.3,5,32,5h-0.7L23,10.8V5h-2v10h15v-2h-5.6L36,9 &#9;&#9;L36,9z"/> 	<path class="st5" d="M21,31V21h15v-6H21V5h-3v26H21z"/> </g> </svg>